<svg xmlns="http://www.w3.org/2000/svg" width="27.624" height="36.466" viewBox="0 0 27.624 36.466">
  <path id="Icon_awesome-code-branch" data-name="Icon awesome-code-branch" d="M27,10.125a5.625,5.625,0,1,0-7.207,5.4,4.327,4.327,0,0,1-.773,2.595c-1.083,1.35-3.466,1.575-5.991,1.807a16.972,16.972,0,0,0-5.716,1.188V10.99a5.625,5.625,0,1,0-3.375,0V25a5.638,5.638,0,1,0,3.713.127A2.475,2.475,0,0,1,8.7,24.188a14.147,14.147,0,0,1,4.648-.9c2.967-.274,6.328-.591,8.311-3.052a7.571,7.571,0,0,0,1.519-4.774A5.648,5.648,0,0,0,27,10.125ZM5.625,4.5A1.125,1.125,0,1,1,4.5,5.625,1.128,1.128,0,0,1,5.625,4.5Zm0,27A1.125,1.125,0,1,1,6.75,30.375,1.128,1.128,0,0,1,5.625,31.5ZM21.375,9a1.125,1.125,0,1,1-1.125,1.125A1.128,1.128,0,0,1,21.375,9Z" transform="matrix(1, -0.017, 0.017, 1, 0, 0.471)"/>
</svg>
